<svg xmlns="http://www.w3.org/2000/svg" version="1.0" width="512.000000pt" height="512.000000pt" viewBox="0 0 512.000000 512.000000" preserveAspectRatio="xMidYMid meet">

<g transform="translate(0.000000,512.000000) scale(0.100000,-0.100000)" fill="#ffffff" stroke="none">
<path d="M2205 4924 c-234 -49 -265 -58 -312 -89 -155 -103 -214 -351 -163 -681 11 -71 20 -131 20 -134 0 -3 -18 -6 -41 -7 -89 -3 -97 -47 -49 -288 17 -82 30 -162 30 -177 0 -22 11 -35 55 -64 l55 -37 0 -161 0 -161 140 -270 c128 -247 145 -275 200 -325 72 -67 147 -114 238 -148 58 -23 83 -26 182 -26 99 0 124 3 182 26 98 37 173 85 242 153 55 53 76 89 199 325 l137 265 0 161 0 161 55 37 c44 29 55 42 55 64 0 15 14 96 30 181 47 241 40 281 -49 284 -23 1 -41 3 -41 5 0 2 9 65 21 140 45 290 0 524 -123 644 -26 25 -67 53 -90 62 -24 9 -155 38 -292 66 -324 65 -341 65 -681 -6z" fill="#ffffff"/>
<path d="M1930 2456 l0 -214 -41 -36 c-79 -67 -285 -137 -743 -252 -173 -43 -237 -64 -296 -95 -149 -81 -249 -179 -292 -289 -19 -49 -22 -79 -26 -270 -4 -242 6 -316 57 -426 159 -340 577 -579 1187 -678 272 -45 367 -51 794 -51 426 1 553 9 813 56 593 106 992 340 1147 671 52 112 62 185 58 428 -4 191 -7 221 -26 270 -44 111 -158 222 -304 296 -43 22 -141 52 -285 88 -477 120 -665 184 -748 257 l-35 31 0 214 c0 118 -3 214 -7 214 -5 0 -25 -34 -46 -75 -65 -125 -210 -241 -379 -303 -65 -24 -87 -27 -198 -27 -111 0 -133 3 -198 27 -169 62 -314 178 -379 303 -21 41 -41 75 -45 75 -5 0 -8 -96 -8 -214z" fill="#ffffff"/>
</g>
</svg>