<svg xmlns="http://www.w3.org/2000/svg" version="1.0" width="512.000000pt" height="512.000000pt" viewBox="0 0 512.000000 512.000000" preserveAspectRatio="xMidYMid meet">

<g transform="translate(0.000000,512.000000) scale(0.100000,-0.100000)" fill="#f7f7f7" stroke="none">
<path d="M1453 4465 c-116 -24 -225 -51 -241 -59 -137 -71 -200 -292 -157 -551 20 -125 20 -125 -15 -125 -17 0 -39 -9 -50 -20 -22 -22 -21 -48 11 -212 10 -53 19 -112 19 -131 0 -31 5 -38 45 -61 l45 -27 0 -129 0 -129 108 -208 c60 -114 116 -220 126 -236 28 -42 143 -124 215 -153 170 -68 356 -26 498 111 55 54 74 83 173 276 l110 216 0 126 0 125 38 23 c46 28 52 36 52 74 0 17 9 76 20 133 26 135 26 198 1 212 -11 5 -31 10 -45 10 -31 0 -31 -5 -9 147 30 214 -5 380 -101 479 -35 36 -64 56 -93 63 -115 31 -440 91 -486 90 -29 -1 -147 -21 -264 -44z" fill="#f7f7f7"/>
<path d="M3555 4374 c-196 -39 -212 -44 -253 -87 -60 -62 -76 -117 -77 -257 0 -69 4 -149 8 -177 7 -48 6 -53 -12 -53 -10 0 -29 -8 -41 -18 l-22 -18 17 -94 c10 -52 19 -115 22 -140 4 -38 11 -49 39 -68 l34 -22 0 -100 0 -99 90 -173 c101 -194 132 -230 240 -282 57 -27 76 -31 150 -31 75 0 93 4 150 31 111 54 136 83 238 277 l92 175 0 101 0 101 34 22 c28 18 35 30 39 63 2 22 12 85 22 139 l18 100 -23 18 c-12 10 -31 18 -42 18 -16 0 -18 5 -13 33 19 111 23 177 15 248 -14 121 -60 207 -131 244 -25 14 -373 86 -406 84 -10 0 -94 -16 -188 -35z" fill="#f7f7f7"/>
<path d="M3350 2811 l0 -141 -37 -24 c-50 -33 -205 -84 -426 -140 -210 -54 -312 -103 -244 -119 169 -38 594 -155 632 -174 134 -68 257 -181 303 -280 l27 -58 0 -259 0 -259 245 6 c406 9 678 69 898 199 93 55 195 163 236 248 l36 74 0 179 c0 202 -5 219 -80 295 -73 73 -133 99 -358 157 -265 69 -392 114 -421 149 -6 7 -12 75 -13 152 l-3 139 -35 -60 c-64 -108 -202 -191 -336 -202 -132 -12 -312 81 -375 192 -17 30 -35 58 -40 61 -5 3 -9 -54 -9 -135z" fill="#f7f7f7"/>
<path d="M1220 2476 l0 -175 -32 -24 c-78 -58 -208 -103 -567 -196 -187 -49 -244 -68 -299 -100 -85 -49 -164 -128 -198 -196 -25 -53 -25 -53 -22 -282 l3 -229 37 -75 c155 -309 523 -495 1123 -564 290 -34 737 -29 1015 11 502 72 835 239 999 499 60 95 71 154 71 374 0 240 -7 265 -90 355 -101 108 -167 138 -449 211 -263 68 -415 116 -496 157 -85 44 -84 41 -87 239 l-3 174 -34 -63 c-59 -109 -182 -205 -321 -252 -91 -31 -237 -25 -327 12 -131 55 -234 142 -283 238 -17 33 -32 60 -35 60 -3 0 -5 -79 -5 -174z" fill="#f7f7f7"/>
</g>
</svg>